{
  "source": "C:\\Users\\Peter\\Desktop\\stuff\\MIUN\\quantitative_research\\video_compression\\videos\\BVI-HD\\BVI-HD_CDVL_videos\\ORIG\\MartialArts_1920x1080_60fps.mp4",
  "output": "C:\\Users\\Peter\\Desktop\\stuff\\MIUN\\quantitative_research\\video_compression\\compressed_videos\\BVI-HD\\h264\\8\\MartialArts_1920x1080_60fps_h264.mp4",
  "codec": "h264",
  "ok": "Input #0, mov,mp4,m4a,3gp,3g2,mj2, from 'C:\\Users\\Peter\\Desktop\\stuff\\MIUN\\quantitative_research\\video_compression\\videos\\BVI-HD\\BVI-HD_CDVL_videos\\ORIG\\MartialArts_1920x1080_60fps.mp4':\n  Metadata:\n    major_brand     : isom\n    minor_version   : 512\n    compatible_brands: isomiso2avc1mp41\n    encoder         : Lavf54.28.101\n  Duration: 00:00:05.00, start: 0.000000, bitrate: 120609 kb/s\n  Stream #0:0[0x1](und): Video: h264 (High 4:4:4 Predictive) (avc1 / 0x31637661), yuv420p(progressive), 1920x1080, 120605 kb/s, 60 fps, 60 tbr, 60 tbn (default)\n    Metadata:\n      handler_name    : VideoHandler\n      vendor_id       : [0][0][0][0]\n[out#0/mp4 @ 000001aa72d49ac0] Codec AVOption b:a (set bitrate (in bits/s)) has not been used for any stream. The most likely reason is either wrong type (e.g. a video option with no video streams) or that it is a private option of some decoder which was not actually used for any stream.\nStream mapping:\n  Stream #0:0 -> #0:0 (h264 (native) -> h264 (libx264))\nPress [q] to stop, [?] for help\n[libx264 @ 000001aa73610980] using cpu capabilities: MMX2 SSE2Fast SSSE3 SSE4.2 AVX FMA3 BMI2 AVX2\n[libx264 @ 000001aa73610980] profile High, level 5.0, 4:2:0, 8-bit\n[libx264 @ 000001aa73610980] 264 - core 165 r3222 b35605a - H.264/MPEG-4 AVC codec - Copyleft 2003-2025 - http://www.videolan.org/x264.html - options: cabac=1 ref=5 deblock=1:0:0 analyse=0x3:0x113 me=hex subme=8 psy=1 psy_rd=1.00:0.00 mixed_ref=1 me_range=16 chroma_me=1 trellis=2 8x8dct=1 cqm=0 deadzone=21,11 fast_pskip=1 chroma_qp_offset=-2 threads=18 lookahead_threads=3 sliced_threads=0 nr=0 decimate=1 interlaced=0 bluray_compat=0 constrained_intra=0 bframes=3 b_pyramid=2 b_adapt=1 b_bias=0 direct=3 weightb=1 open_gop=0 weightp=2 keyint=250 keyint_min=25 scenecut=40 intra_refresh=0 rc_lookahead=50 rc=cbr mbtree=1 bitrate=8000 ratetol=1.0 qcomp=0.60 qpmin=0 qpmax=69 qpstep=4 vbv_maxrate=8000 vbv_bufsize=8000 nal_hrd=none filler=0 ip_ratio=1.40 aq=1:1.00\nOutput #0, mp4, to 'C:\\Users\\Peter\\Desktop\\stuff\\MIUN\\quantitative_research\\video_compression\\compressed_videos\\BVI-HD\\h264\\8\\MartialArts_1920x1080_60fps_h264.mp4':\n  Metadata:\n    major_brand     : isom\n    minor_version   : 512\n    compatible_brands: isomiso2avc1mp41\n    encoder         : Lavf62.3.100\n  Stream #0:0(und): Video: h264 (avc1 / 0x31637661), yuv420p(tv, progressive), 1920x1080, q=2-31, 8000 kb/s, 60 fps, 15360 tbn (default)\n    Metadata:\n      encoder         : Lavc62.11.100 libx264\n      handler_name    : VideoHandler\n      vendor_id       : [0][0][0][0]\n    Side data:\n      cpb: bitrate max/min/avg: 8000000/0/8000000 buffer size: 8000000 vbv_delay: N/A\nframe=    0 fps=0.0 q=0.0 size=       0KiB time=N/A bitrate=N/A speed=N/A elapsed=0:00:00.53    \nframe=    0 fps=0.0 q=0.0 size=       0KiB time=N/A bitrate=N/A speed=N/A elapsed=0:00:01.10    \nframe=    5 fps=3.0 q=26.0 size=       0KiB time=00:00:00.00 bitrate=N/A speed=   0x elapsed=0:00:01.64    \nframe=   25 fps= 11 q=24.0 size=     256KiB time=00:00:00.38 bitrate=5471.8kbits/s speed=0.172x elapsed=0:00:02.22    \nframe=   45 fps= 16 q=26.0 size=     512KiB time=00:00:00.71 bitrate=5853.1kbits/s speed=0.256x elapsed=0:00:02.80    \nframe=   65 fps= 19 q=27.0 size=     768KiB time=00:00:01.05 bitrate=5992.2kbits/s speed=0.309x elapsed=0:00:03.40    \nframe=   85 fps= 22 q=27.0 size=    1280KiB time=00:00:01.33 bitrate=7864.6kbits/s speed=0.339x elapsed=0:00:03.93    \nframe=  106 fps= 23 q=27.0 size=    1536KiB time=00:00:01.70 bitrate=7401.9kbits/s speed=0.375x elapsed=0:00:04.53    \nframe=  125 fps= 25 q=26.0 size=    1792KiB time=00:00:02.05 bitrate=7161.2kbits/s speed=0.402x elapsed=0:00:05.09    \nframe=  139 fps= 25 q=26.0 size=    2048KiB time=00:00:02.25 bitrate=7456.7kbits/s speed=0.399x elapsed=0:00:05.64    \nframe=  157 fps= 25 q=27.0 size=    2304KiB time=00:00:02.58 bitrate=7306.4kbits/s speed=0.414x elapsed=0:00:06.23    \nframe=  181 fps= 27 q=27.0 size=    2816KiB time=00:00:02.91 bitrate=7909.4kbits/s speed=0.431x elapsed=0:00:06.76    \nframe=  201 fps= 27 q=27.0 size=    3072KiB time=00:00:03.26 bitrate=7703.9kbits/s speed=0.444x elapsed=0:00:07.34    \nframe=  218 fps= 27 q=27.0 size=    3328KiB time=00:00:03.58 bitrate=7608.4kbits/s speed=0.449x elapsed=0:00:07.98    \nframe=  245 fps= 29 q=27.0 size=    3840KiB time=00:00:04.00 bitrate=7864.4kbits/s speed=0.466x elapsed=0:00:08.58    \nframe=  269 fps= 29 q=27.0 size=    4352KiB time=00:00:04.45 bitrate=8011.7kbits/s speed=0.483x elapsed=0:00:09.21    \nframe=  294 fps= 30 q=-1.0 size=    4864KiB time=00:00:04.81 bitrate=8272.6kbits/s speed=0.492x elapsed=0:00:09.79    \n[mp4 @ 000001aa72d5a600] Starting second pass: moving the moov atom to the beginning of the file\n[out#0/mp4 @ 000001aa72d49ac0] video:5002KiB audio:0KiB subtitle:0KiB other streams:0KiB global headers:0KiB muxing overhead: 0.087842%\nframe=  300 fps= 30 q=-1.0 Lsize=    5006KiB time=00:00:04.96 bitrate=8257.0kbits/s speed=0.502x elapsed=0:00:09.89    \n[libx264 @ 000001aa73610980] frame I:2     Avg QP:16.96  size: 61971\n[libx264 @ 000001aa73610980] frame P:75    Avg QP:19.05  size: 29963\n[libx264 @ 000001aa73610980] frame B:223   Avg QP:19.16  size: 12331\n[libx264 @ 000001aa73610980] consecutive B-frames:  0.7%  0.0%  2.0% 97.3%\n[libx264 @ 000001aa73610980] mb I  I16..4: 14.1% 84.7%  1.2%\n[libx264 @ 000001aa73610980] mb P  I16..4:  4.6% 35.6%  0.4%  P16..4: 27.6%  6.8%  4.2%  0.0%  0.0%    skip:20.9%\n[libx264 @ 000001aa73610980] mb B  I16..4:  1.4%  5.5%  0.0%  B16..8: 36.0%  7.9%  0.7%  direct: 7.8%  skip:40.6%  L0:56.6% L1:38.9% BI: 4.5%\n[libx264 @ 000001aa73610980] 8x8 transform intra:84.9% inter:89.0%\n[libx264 @ 000001aa73610980] direct mvs  spatial:95.5% temporal:4.5%\n[libx264 @ 000001aa73610980] coded y,uvDC,uvAC intra: 35.8% 25.3% 2.6% inter: 6.8% 20.7% 0.2%\n[libx264 @ 000001aa73610980] i16 v,h,dc,p: 42% 34% 14% 10%\n[libx264 @ 000001aa73610980] i8 v,h,dc,ddl,ddr,vr,hd,vl,hu: 23% 20% 44%  2%  2%  2%  2%  2%  2%\n[libx264 @ 000001aa73610980] i4 v,h,dc,ddl,ddr,vr,hd,vl,hu: 25% 14%  9%  6% 15% 13% 10%  6%  4%\n[libx264 @ 000001aa73610980] i8c dc,h,v,p: 57% 22% 19%  2%\n[libx264 @ 000001aa73610980] Weighted P-Frames: Y:0.0% UV:0.0%\n[libx264 @ 000001aa73610980] ref P L0: 37.8% 10.0% 31.8% 10.0% 10.5%\n[libx264 @ 000001aa73610980] ref B L0: 51.3% 32.5% 13.4%  2.7%\n[libx264 @ 000001aa73610980] ref B L1: 83.4% 16.6%\n[libx264 @ 000001aa73610980] kb/s:8193.53\n",
  "seconds": 10.212655067443848,
  "probe_out": {}
}